<svg xmlns="http://www.w3.org/2000/svg" xmlns:xlink="http://www.w3.org/1999/xlink" fill="none" version="1.1" width="200" height="152" viewBox="0 0 200 152"><defs><clipPath id="master_svg0_81_0"><rect x="0" y="0" width="200" height="152" rx="12"/></clipPath><clipPath id="master_svg1_89_2335"><rect x="43" y="40" width="30" height="12" rx="2"/></clipPath><clipPath id="master_svg2_89_2523"><rect x="43" y="70" width="30" height="12" rx="2"/></clipPath><clipPath id="master_svg3_89_2526"><rect x="43" y="100" width="30" height="12" rx="2"/></clipPath><clipPath id="master_svg4_89_2491"><rect x="127" y="40" width="30" height="12" rx="2"/></clipPath><clipPath id="master_svg5_89_2525"><rect x="85" y="70" width="30" height="12" rx="2"/></clipPath><clipPath id="master_svg6_89_2528"><rect x="127" y="100" width="30" height="12" rx="2"/></clipPath><clipPath id="master_svg7_89_2492"><rect x="85" y="40" width="30" height="12" rx="2"/></clipPath><clipPath id="master_svg8_89_2524"><rect x="127" y="70" width="30" height="12" rx="2"/></clipPath><clipPath id="master_svg9_89_2527"><rect x="85" y="100" width="30" height="12" rx="2"/></clipPath></defs><g style="mix-blend-mode:passthrough" clip-path="url(#master_svg0_81_0)"><rect x="0" y="0" width="200" height="152" rx="12" fill="#36CFE9" fill-opacity="0.25999999046325684"/><g style="mix-blend-mode:passthrough" clip-path="url(#master_svg1_89_2335)"><rect x="43" y="40" width="30" height="12" rx="2" fill="#36CFC9" fill-opacity="0.7607843279838562"/></g><g style="mix-blend-mode:passthrough" clip-path="url(#master_svg2_89_2523)"><rect x="43" y="70" width="30" height="12" rx="2" fill="#08979C" fill-opacity="0.7607843279838562"/></g><g style="mix-blend-mode:passthrough" clip-path="url(#master_svg3_89_2526)"><rect x="43" y="100" width="30" height="12" rx="2" fill="#36CFC9" fill-opacity="0.7607843279838562"/></g><g style="mix-blend-mode:passthrough" clip-path="url(#master_svg4_89_2491)"><rect x="127" y="40" width="30" height="12" rx="2" fill="#36CFC9" fill-opacity="0.7607843279838562"/></g><g style="mix-blend-mode:passthrough" clip-path="url(#master_svg5_89_2525)"><rect x="85" y="70" width="30" height="12" rx="2" fill="#08979C" fill-opacity="0.7607843279838562"/></g><g style="mix-blend-mode:passthrough" clip-path="url(#master_svg6_89_2528)"><rect x="127" y="100" width="30" height="12" rx="2" fill="#08979C" fill-opacity="0.7607843279838562"/></g><g style="mix-blend-mode:passthrough" clip-path="url(#master_svg7_89_2492)"><rect x="85" y="40" width="30" height="12" rx="2" fill="#08979C" fill-opacity="0.7607843279838562"/></g><g style="mix-blend-mode:passthrough" clip-path="url(#master_svg8_89_2524)"><rect x="127" y="70" width="30" height="12" rx="2" fill="#36CFC9" fill-opacity="0.7607843279838562"/></g><g style="mix-blend-mode:passthrough" clip-path="url(#master_svg9_89_2527)"><rect x="85" y="100" width="30" height="12" rx="2" fill="#36CFC9" fill-opacity="0.7607843279838562"/></g></g></svg>